<?xml version="1.0" encoding="utf-8"?>
<!-- Generator: Adobe Illustrator 24.1.2, SVG Export Plug-In . SVG Version: 6.00 Build 0)  -->
<svg version="1.1" id="Warstwa_3" xmlns="http://www.w3.org/2000/svg" xmlns:xlink="http://www.w3.org/1999/xlink" x="0px" y="0px"
	 viewBox="0 0 430 430" style="enable-background:new 0 0 430 430;" xml:space="preserve">
<style type="text/css">
	.st0{fill:#08A789;}
	.st1{fill:#121331;}
	.st2{fill:#08A88A;}
	.st3{fill:none;}
	.st4{fill:none;stroke:#121331;stroke-width:12;stroke-linecap:round;stroke-linejoin:round;stroke-miterlimit:10;}
	.st5{fill:none;stroke:#08A789;stroke-width:12;stroke-linecap:round;stroke-linejoin:round;stroke-miterlimit:10;}
	.st6{fill:none;stroke:#121331;stroke-width:16;stroke-linecap:round;stroke-linejoin:round;stroke-miterlimit:10;}
</style>
<g>
	<path class="st0" d="M283.15,212.77c-2.56,0-4.94-1.66-5.73-4.23c-1.9-6.1-9.28-22.74-20.42-26.34c-12.74-4.12-41.11,8.29-46.35,11
		c-0.31,0.18-0.65,0.34-1,0.47c-2.47,0.9-5.24,0.09-6.83-1.99c-1.59-2.09-1.65-4.96-0.13-7.11c0.92-1.3,1.14-1.61,8.18-4.67
		c3.26-1.42,8.37-3.51,14.15-5.43c15.4-5.12,27.4-6.36,35.67-3.69c19.37,6.26,27.84,33.08,28.19,34.22c0.98,3.17-0.8,6.53-3.97,7.5
		C284.33,212.68,283.73,212.77,283.15,212.77z"/>
	<path class="st0" d="M159.63,192.91h-41.37c-3.31,0-6-2.69-6-6s2.69-6,6-6h41.37c3.31,0,6,2.69,6,6S162.94,192.91,159.63,192.91z"
		/>
	<path class="st1" d="M403.14,230.39l-77.47-23.43c-5.94-3.91-13.05-6.19-20.68-6.19c-0.17,0-0.34,0.01-0.51,0.01
		c-0.07,0-0.14-0.02-0.21-0.02h-90.66v-40.99c0-3.31-2.69-6-6-6h-69.4c-1.91,0-3.7,0.91-4.83,2.45L101.4,199.7l-8-29.42
		c-0.71-2.61-3.08-4.43-5.79-4.43H28.59c-1.87,0-3.63,0.87-4.77,2.36c-1.14,1.49-1.51,3.42-1.02,5.22l15.68,57.65
		c0.71,2.61,3.08,4.42,5.79,4.42h21.82c-0.08,0.99-0.13,1.99-0.13,2.99c0,20.8,16.92,37.73,37.73,37.73
		c9.61,0,18.38-3.62,25.05-9.55h151.19c6.67,5.94,15.44,9.55,25.05,9.55c9.61,0,18.39-3.62,25.05-9.55h71.36c3.31,0,6-2.69,6-6
		v-24.54C407.41,233.49,405.67,231.16,403.14,230.39z M69.08,223.5H48.86l-12.42-45.65h46.58l6.94,25.51
		C80.62,207.03,73.07,214.32,69.08,223.5z M77.96,238.5c0-14.19,11.54-25.73,25.73-25.73s25.73,11.54,25.73,25.73
		s-11.54,25.73-25.73,25.73S77.96,252.68,77.96,238.5z M137.77,254.67c2.34-4.91,3.65-10.39,3.65-16.18
		c0-17.09-11.43-31.56-27.05-36.18l26.87-36.54h60.36v40.99c0,3.31,2.69,6,6,6h69.83c-6.3,6.75-10.17,15.79-10.17,25.73
		c0,5.79,1.31,11.27,3.65,16.18H137.77z M304.99,264.23c-14.19,0-25.73-11.54-25.73-25.73s11.54-25.73,25.73-25.73
		s25.73,11.54,25.73,25.73S319.17,264.23,304.99,264.23z M395.41,254.67h-56.34c2.34-4.91,3.65-10.39,3.65-16.18
		c0-5.23-1.07-10.22-3.01-14.75l55.69,16.84V254.67z"/>
	<path class="st0" d="M304.99,244.5h-0.01c-3.31,0-6-2.69-6-6s2.69-6,6-6s6.01,2.69,6.01,6S308.31,244.5,304.99,244.5z"/>
	<path class="st0" d="M103.7,244.5h-0.01c-3.31,0-6-2.69-6-6s2.69-6,6-6s6.01,2.69,6.01,6S107.01,244.5,103.7,244.5z"/>
</g>
</svg>
